# xmcd
#
# Track frame offsets:
# 150
# 16844
# 31954
# 44658
# 66605
# 85370
# 104772
# 126094
# 141371
# 157530
# 180570
# 205467
# 219364
# 238631
# 259943
#
# Disc length: 3708 seconds
#
#
# Revision: 0
# Processed by: cddbd v1.5.1PL0 Copyright (c) Steve Scherf et al.
# Submitted via: FreeRIP 2.941 
#
DISCID=db0e7a0f
DTITLE=莫文蔚 - 就是莫文蔚
DYEAR=2000
DGENRE=Pop
TTITLE0=愛我的請舉手
TTITLE1=今天星期幾
TTITLE2=Accessories
TTITLE3=愈夜愈美麗
TTITLE4=我的天
TTITLE5=雙城故事
TTITLE6=我想愛
TTITLE7=忽然之間
TTITLE8=是這樣嗎
TTITLE9=冷
TTITLE10=不要愛我
TTITLE11=你最愛的歌
TTITLE12=冷雨
TTITLE13=回家
TTITLE14=最高分數
EXTD=
EXTT0=
EXTT1=
EXTT2=
EXTT3=
EXTT4=
EXTT5=
EXTT6=
EXTT7=
EXTT8=
EXTT9=
EXTT10=
EXTT11=
EXTT12=
EXTT13=
EXTT14=
PLAYORDER=
